<svg xmlns="http://www.w3.org/2000/svg" viewBox="0 0 180 180">
  <defs>
    <linearGradient id="bgGradient" x1="0%" y1="0%" x2="100%" y2="100%">
      <stop offset="0%" style="stop-color:#667eea;stop-opacity:1" />
      <stop offset="100%" style="stop-color:#764ba2;stop-opacity:1" />
    </linearGradient>
    <linearGradient id="nodeGradient" x1="0%" y1="0%" x2="100%" y2="100%">
      <stop offset="0%" style="stop-color:#f093fb;stop-opacity:1" />
      <stop offset="100%" style="stop-color:#f5576c;stop-opacity:1" />
    </linearGradient>
  </defs>
  
  <!-- Background -->
  <rect width="180" height="180" rx="40" fill="url(#bgGradient)"/>
  
  <!-- Neural Network Connections -->
  <g opacity="0.6" stroke="#fff" stroke-width="3" fill="none" stroke-linecap="round">
    <line x1="45" y1="55" x2="90" y2="35" />
    <line x1="45" y1="55" x2="90" y2="70" />
    <line x1="45" y1="90" x2="90" y2="35" />
    <line x1="45" y1="90" x2="90" y2="70" />
    <line x1="45" y1="90" x2="90" y2="105" />
    <line x1="45" y1="125" x2="90" y2="70" />
    <line x1="45" y1="125" x2="90" y2="105" />
    <line x1="45" y1="125" x2="90" y2="145" />
    
    <line x1="90" y1="35" x2="135" y2="55" />
    <line x1="90" y1="70" x2="135" y2="55" />
    <line x1="90" y1="70" x2="135" y2="90" />
    <line x1="90" y1="105" x2="135" y2="90" />
    <line x1="90" y1="105" x2="135" y2="125" />
    <line x1="90" y1="145" x2="135" y2="125" />
  </g>
  
  <!-- Neural Network Nodes -->
  <g>
    <circle cx="45" cy="55" r="10" fill="#fff" opacity="0.9"/>
    <circle cx="45" cy="90" r="10" fill="#fff" opacity="0.9"/>
    <circle cx="45" cy="125" r="10" fill="#fff" opacity="0.9"/>
    
    <circle cx="90" cy="35" r="12" fill="url(#nodeGradient)"/>
    <circle cx="90" cy="70" r="12" fill="url(#nodeGradient)"/>
    <circle cx="90" cy="105" r="12" fill="url(#nodeGradient)"/>
    <circle cx="90" cy="145" r="12" fill="url(#nodeGradient)"/>
    
    <circle cx="135" cy="55" r="10" fill="#fff" opacity="0.9"/>
    <circle cx="135" cy="90" r="10" fill="#fff" opacity="0.9"/>
    <circle cx="135" cy="125" r="10" fill="#fff" opacity="0.9"/>
  </g>
  
  <g fill="#667eea" opacity="0.5">
    <circle cx="90" cy="35" r="6" />
    <circle cx="90" cy="70" r="6" />
    <circle cx="90" cy="105" r="6" />
    <circle cx="90" cy="145" r="6" />
  </g>
</svg>

