<svg xmlns="http://www.w3.org/2000/svg" viewBox="0 0 32 32">
  <defs>
    <linearGradient id="bg" x1="0%" y1="0%" x2="100%" y2="100%">
      <stop offset="0%" style="stop-color:#667eea;stop-opacity:1" />
      <stop offset="100%" style="stop-color:#764ba2;stop-opacity:1" />
    </linearGradient>
  </defs>
  
  <rect width="32" height="32" rx="6" fill="url(#bg)"/>
  
  <!-- Simplified neural network for small size -->
  <g opacity="0.5" stroke="#fff" stroke-width="1.5" fill="none">
    <line x1="8" y1="10" x2="16" y2="8" />
    <line x1="8" y1="10" x2="16" y2="16" />
    <line x1="8" y1="16" x2="16" y2="8" />
    <line x1="8" y1="16" x2="16" y2="16" />
    <line x1="8" y1="16" x2="16" y2="24" />
    <line x1="8" y1="22" x2="16" y2="16" />
    <line x1="8" y1="22" x2="16" y2="24" />
    
    <line x1="16" y1="8" x2="24" y2="12" />
    <line x1="16" y1="16" x2="24" y2="12" />
    <line x1="16" y1="16" x2="24" y2="20" />
    <line x1="16" y1="24" x2="24" y2="20" />
  </g>
  
  <g>
    <circle cx="8" cy="10" r="2.5" fill="#fff"/>
    <circle cx="8" cy="16" r="2.5" fill="#fff"/>
    <circle cx="8" cy="22" r="2.5" fill="#fff"/>
    
    <circle cx="16" cy="8" r="3" fill="#f5576c"/>
    <circle cx="16" cy="16" r="3" fill="#f5576c"/>
    <circle cx="16" cy="24" r="3" fill="#f5576c"/>
    
    <circle cx="24" cy="12" r="2.5" fill="#fff"/>
    <circle cx="24" cy="20" r="2.5" fill="#fff"/>
  </g>
</svg>

