<?xml version="1.0" encoding="UTF-8"?>
<svg xmlns="http://www.w3.org/2000/svg" width="560" height="420" viewBox="0 0 560 420" role="img" aria-labelledby="title desc">
  <title id="title">Realistic ROC Curve</title>
  <desc id="desc">Axes with true positive rate versus false positive rate and a realistic ROC shown as a smooth red curve.</desc>

  <defs>
    <style type="text/css"><![CDATA[
      .axis { stroke: #555; stroke-width: 2; }
      .tick { stroke: #555; stroke-width: 1.5; }
      .label { fill: #333; font-family: system-ui, -apple-system, "Segoe UI", Roboto, Ubuntu, Cantarell, "Helvetica Neue", Arial, sans-serif; font-size: 14px; }
      .small { font-size: 12px; }
      .roc { stroke: #b22222; stroke-width: 4; fill: none; }
      .guide { stroke: #888; stroke-width: 1.5; stroke-dasharray: 2 6; }
      .sample { fill: #b22222; stroke: #fff; stroke-width: 2; }
    ]]></style>
  </defs>

  <g transform="translate(70,20)">
    <rect x="0" y="0" width="470" height="340" fill="none"/>

    <line class="axis" x1="0" y1="340" x2="470" y2="340"/>
    <line class="axis" x1="0" y1="340" x2="0" y2="0"/>

    <text class="label" x="235" y="380" text-anchor="middle">false positive rate</text>
    <text class="label" x="-40" y="170" transform="rotate(-90 -40,170)" text-anchor="middle">true positive rate</text>

    <line class="tick" x1="0" y1="340" x2="0" y2="348"/>
    <text class="small" x="0" y="365" text-anchor="middle">0.0</text>

    <line class="tick" x1="470" y1="340" x2="470" y2="348"/>
    <text class="small" x="470" y="365" text-anchor="middle">1.0</text>

    <line class="tick" x1="-8" y1="340" x2="0" y2="340"/>
    <text class="small" x="-18" y="344" text-anchor="end">0.0</text>

    <line class="tick" x1="-8" y1="0" x2="0" y2="0"/>
    <text class="small" x="-18" y="4" text-anchor="end">1.0</text>

    <path class="roc" d="M 0 340 C 40 300, 120 240, 200 160 S 360 50, 470 0"/>
    <!-- Highlight example operating point and diagonal distance to (0,1) corner -->
    <line class="guide" x1="200" y1="160" x2="0" y2="0"/>
    <circle class="sample" cx="200" cy="160" r="6"/>
    <text class="small" x="12" y="16">distanza da (0,1)</text>
    <text class="small" x="210" y="172">better threshold</text>
  </g>
</svg>